{
  "accessors": [
    {
      "bufferView": 2,
      "componentType": 5126,
      "count": 776,
      "max": [
        0.19575437903404236,
        6.824449062347412,
        8.653289794921875
      ],
      "min": [
        -2.102956533432007,
        5.696481704711914,
        7.1077799797058105
      ],
      "type": "VEC3"
    },
    {
      "bufferView": 2,
      "byteOffset": 9312,
      "componentType": 5126,
      "count": 776,
      "max": [
        0.9998899102210999,
        0.9999993443489075,
        0.9996486902236938
      ],
      "min": [
        -0.9998898506164551,
        -1.0,
        -0.9982839822769165
      ],
      "type": "VEC3"
    },
    {
      "bufferView": 0,
      "componentType": 5125,
      "count": 4632,
      "type": "SCALAR"
    },
    {
      "bufferView": 2,
      "byteOffset": 18624,
      "componentType": 5126,
      "count": 381,
      "max": [
        0.47999969124794006,
        0.46875,
        0.7730298638343811
      ],
      "min": [
        -0.48000019788742065,
        -5.638198375701904,
        -0.7730299830436707
      ],
      "type": "VEC3"
    },
    {
      "bufferView": 2,
      "byteOffset": 23196,
      "componentType": 5126,
      "count": 381,
      "max": [
        0.9998185634613037,
        1.0,
        0.9999845027923584
      ],
      "min": [
        -0.9998185634613037,
        -1.0,
        -0.9999844431877136
      ],
      "type": "VEC3"
    },
    {
      "bufferView": 1,
      "componentType": 5126,
      "count": 381,
      "max": [
        0.875,
        1.0
      ],
      "min": [
        0.125,
        0.0
      ],
      "type": "VEC2"
    },
    {
      "bufferView": 0,
      "byteOffset": 18528,
      "componentType": 5125,
      "count": 2112,
      "type": "SCALAR"
    },
    {
      "bufferView": 2,
      "byteOffset": 27768,
      "componentType": 5126,
      "count": 1677,
      "max": [
        0.9847239255905151,
        0.998973548412323,
        0.9847239851951599
      ],
      "min": [
        -0.9847240447998047,
        -0.998973548412323,
        -0.984724223613739
      ],
      "type": "VEC3"
    },
    {
      "bufferView": 2,
      "byteOffset": 47892,
      "componentType": 5126,
      "count": 1677,
      "max": [
        1.0,
        1.0,
        1.0
      ],
      "min": [
        -1.0,
        -1.0,
        -1.0
      ],
      "type": "VEC3"
    },
    {
      "bufferView": 1,
      "byteOffset": 3048,
      "componentType": 5126,
      "count": 1677,
      "max": [
        1.0000001192092896,
        1.0
      ],
      "min": [
        0.0,
        0.0
      ],
      "type": "VEC2"
    },
    {
      "bufferView": 0,
      "byteOffset": 26976,
      "componentType": 5125,
      "count": 9360,
      "type": "SCALAR"
    },
    {
      "bufferView": 2,
      "byteOffset": 68016,
      "componentType": 5126,
      "count": 1677,
      "max": [
        0.9847239255905151,
        0.998973548412323,
        0.9847239851951599
      ],
      "min": [
        -0.9847240447998047,
        -0.998973548412323,
        -0.984724223613739
      ],
      "type": "VEC3"
    },
    {
      "bufferView": 2,
      "byteOffset": 88140,
      "componentType": 5126,
      "count": 1677,
      "max": [
        1.0,
        1.0,
        1.0
      ],
      "min": [
        -1.0,
        -1.0,
        -1.0
      ],
      "type": "VEC3"
    },
    {
      "bufferView": 1,
      "byteOffset": 16464,
      "componentType": 5126,
      "count": 1677,
      "max": [
        1.0000001192092896,
        1.0
      ],
      "min": [
        0.0,
        0.0
      ],
      "type": "VEC2"
    },
    {
      "bufferView": 0,
      "byteOffset": 64416,
      "componentType": 5125,
      "count": 9360,
      "type": "SCALAR"
    },
    {
      "bufferView": 2,
      "byteOffset": 108264,
      "componentType": 5126,
      "count": 1677,
      "max": [
        0.9847239255905151,
        0.998973548412323,
        0.9847239851951599
      ],
      "min": [
        -0.9847240447998047,
        -0.998973548412323,
        -0.984724223613739
      ],
      "type": "VEC3"
    },
    {
      "bufferView": 2,
      "byteOffset": 128388,
      "componentType": 5126,
      "count": 1677,
      "max": [
        1.0,
        1.0,
        1.0
      ],
      "min": [
        -1.0,
        -1.0,
        -1.0
      ],
      "type": "VEC3"
    },
    {
      "bufferView": 1,
      "byteOffset": 29880,
      "componentType": 5126,
      "count": 1677,
      "max": [
        1.0000001192092896,
        1.0
      ],
      "min": [
        0.0,
        0.0
      ],
      "type": "VEC2"
    },
    {
      "bufferView": 0,
      "byteOffset": 101856,
      "componentType": 5125,
      "count": 9360,
      "type": "SCALAR"
    },
    {
      "bufferView": 2,
      "byteOffset": 148512,
      "componentType": 5126,
      "count": 1677,
      "max": [
        0.9847239255905151,
        0.998973548412323,
        0.9847239851951599
      ],
      "min": [
        -0.9847240447998047,
        -0.998973548412323,
        -0.984724223613739
      ],
      "type": "VEC3"
    },
    {
      "bufferView": 2,
      "byteOffset": 168636,
      "componentType": 5126,
      "count": 1677,
      "max": [
        1.0,
        1.0,
        1.0
      ],
      "min": [
        -1.0,
        -1.0,
        -1.0
      ],
      "type": "VEC3"
    },
    {
      "bufferView": 1,
      "byteOffset": 43296,
      "componentType": 5126,
      "count": 1677,
      "max": [
        1.0000001192092896,
        1.0
      ],
      "min": [
        0.0,
        0.0
      ],
      "type": "VEC2"
    },
    {
      "bufferView": 0,
      "byteOffset": 139296,
      "componentType": 5125,
      "count": 9360,
      "type": "SCALAR"
    },
    {
      "bufferView": 2,
      "byteOffset": 188760,
      "componentType": 5126,
      "count": 1642,
      "max": [
        1.055303931236267,
        1.4409289360046387,
        1.09453547000885
      ],
      "min": [
        -1.1559767723083496,
        -0.9986041188240051,
        -1.1311075687408447
      ],
      "type": "VEC3"
    },
    {
      "bufferView": 2,
      "byteOffset": 208464,
      "componentType": 5126,
      "count": 1642,
      "max": [
        0.9928994178771973,
        1.0,
        0.9992853999137878
      ],
      "min": [
        -1.0,
        -0.9995830059051514,
        -0.9999497532844543
      ],
      "type": "VEC3"
    },
    {
      "bufferView": 1,
      "byteOffset": 56712,
      "componentType": 5126,
      "count": 1642,
      "max": [
        1.0,
        0.5478745698928833
      ],
      "min": [
        0.0,
        0.0
      ],
      "type": "VEC2"
    },
    {
      "bufferView": 1,
      "byteOffset": 69848,
      "componentType": 5126,
      "count": 1642,
      "max": [
        1.0,
        0.5478745698928833
      ],
      "min": [
        0.0,
        0.0
      ],
      "type": "VEC2"
    },
    {
      "bufferView": 0,
      "byteOffset": 176736,
      "componentType": 5125,
      "count": 9360,
      "type": "SCALAR"
    },
    {
      "bufferView": 2,
      "byteOffset": 228168,
      "componentType": 5126,
      "count": 381,
      "max": [
        0.47999969124794006,
        0.46875,
        0.7730298638343811
      ],
      "min": [
        -0.48000019788742065,
        -5.638198375701904,
        -0.7730299830436707
      ],
      "type": "VEC3"
    },
    {
      "bufferView": 2,
      "byteOffset": 232740,
      "componentType": 5126,
      "count": 381,
      "max": [
        0.9998185634613037,
        1.0,
        0.9999845027923584
      ],
      "min": [
        -0.9998185634613037,
        -1.0,
        -0.9999844431877136
      ],
      "type": "VEC3"
    },
    {
      "bufferView": 1,
      "byteOffset": 82984,
      "componentType": 5126,
      "count": 381,
      "max": [
        0.875,
        1.0
      ],
      "min": [
        0.125,
        0.0
      ],
      "type": "VEC2"
    },
    {
      "bufferView": 0,
      "byteOffset": 214176,
      "componentType": 5125,
      "count": 2112,
      "type": "SCALAR"
    },
    {
      "bufferView": 2,
      "byteOffset": 237312,
      "componentType": 5126,
      "count": 1428,
      "max": [
        -12.711840629577637,
        2.2899694442749023,
        7.148778915405273
      ],
      "min": [
        -13.670637130737305,
        1.0838115215301514,
        3.5564985275268555
      ],
      "type": "VEC3"
    },
    {
      "bufferView": 2,
      "byteOffset": 254448,
      "componentType": 5126,
      "count": 1428,
      "max": [
        0.9943341612815857,
        0.9997916221618652,
        0.9999605417251587
      ],
      "min": [
        -0.9953993558883667,
        -0.9995443224906921,
        -0.9999604821205139
      ],
      "type": "VEC3"
    },
    {
      "bufferView": 0,
      "byteOffset": 222624,
      "componentType": 5125,
      "count": 8544,
      "type": "SCALAR"
    }
  ],
  "asset": {
    "extras": {
      "author": "ahmedazizghadhab (https://sketchfab.com/ahmedazizghadhab)",
      "license": "CC-BY-4.0 (http://creativecommons.org/licenses/by/4.0/)",
      "source": "https://sketchfab.com/3d-models/garlic-avatar-23f70050cca24f569ffd36977e601a80",
      "title": "Garlic Avatar"
    },
    "generator": "Sketchfab-15.53.0",
    "version": "2.0"
  },
  "bufferViews": [
    {
      "buffer": 0,
      "byteLength": 256800,
      "name": "floatBufferViews",
      "target": 34963
    },
    {
      "buffer": 0,
      "byteLength": 86032,
      "byteOffset": 256800,
      "byteStride": 8,
      "name": "floatBufferViews",
      "target": 34962
    },
    {
      "buffer": 0,
      "byteLength": 271584,
      "byteOffset": 342832,
      "byteStride": 12,
      "name": "floatBufferViews",
      "target": 34962
    }
  ],
  "buffers": [
    {
      "byteLength": 614416,
      "uri": "scene.bin"
    }
  ],
  "materials": [
    {
      "doubleSided": true,
      "name": "blinn8",
      "pbrMetallicRoughness": {
        "baseColorFactor": [
          0.387,
          0.0,
          0.0,
          1.0
        ],
        "metallicFactor": 0.0,
        "roughnessFactor": 0.9207483816249483
      }
    },
    {
      "doubleSided": true,
      "name": "blinn9",
      "pbrMetallicRoughness": {
        "baseColorFactor": [
          0.82,
          0.82,
          0.43624,
          1.0
        ],
        "metallicFactor": 0.0,
        "roughnessFactor": 0.9207483816249483
      }
    },
    {
      "doubleSided": true,
      "name": "blinn3",
      "pbrMetallicRoughness": {
        "metallicFactor": 0.0,
        "roughnessFactor": 0.9207483816249483
      }
    },
    {
      "doubleSided": true,
      "name": "blinn4",
      "pbrMetallicRoughness": {
        "baseColorFactor": [
          0.0,
          0.0,
          0.0,
          1.0
        ],
        "metallicFactor": 0.0,
        "roughnessFactor": 0.9207483816249483
      }
    },
    {
      "doubleSided": true,
      "name": "blinn11",
      "pbrMetallicRoughness": {
        "metallicFactor": 0.0,
        "roughnessFactor": 0.9207483816249483
      }
    },
    {
      "doubleSided": true,
      "name": "blinn7",
      "pbrMetallicRoughness": {
        "metallicFactor": 0.0,
        "roughnessFactor": 0.9207483816249483
      }
    }
  ],
  "meshes": [
    {
      "name": "Form42_blinn8_0",
      "primitives": [
        {
          "attributes": {
            "NORMAL": 1,
            "POSITION": 0
          },
          "indices": 2,
          "material": 0,
          "mode": 4
        }
      ]
    },
    {
      "name": "pCube8_blinn9_0",
      "primitives": [
        {
          "attributes": {
            "NORMAL": 4,
            "POSITION": 3,
            "TEXCOORD_0": 5
          },
          "indices": 6,
          "material": 1,
          "mode": 4
        }
      ]
    },
    {
      "name": "pSphere6_blinn3_0",
      "primitives": [
        {
          "attributes": {
            "NORMAL": 8,
            "POSITION": 7,
            "TEXCOORD_0": 9
          },
          "indices": 10,
          "material": 2,
          "mode": 4
        }
      ]
    },
    {
      "name": "pSphere7_blinn4_0",
      "primitives": [
        {
          "attributes": {
            "NORMAL": 12,
            "POSITION": 11,
            "TEXCOORD_0": 13
          },
          "indices": 14,
          "material": 3,
          "mode": 4
        }
      ]
    },
    {
      "name": "pSphere8_blinn3_0",
      "primitives": [
        {
          "attributes": {
            "NORMAL": 16,
            "POSITION": 15,
            "TEXCOORD_0": 17
          },
          "indices": 18,
          "material": 2,
          "mode": 4
        }
      ]
    },
    {
      "name": "pSphere9_blinn4_0",
      "primitives": [
        {
          "attributes": {
            "NORMAL": 20,
            "POSITION": 19,
            "TEXCOORD_0": 21
          },
          "indices": 22,
          "material": 3,
          "mode": 4
        }
      ]
    },
    {
      "name": "pSphere5_blinn11_0",
      "primitives": [
        {
          "attributes": {
            "NORMAL": 24,
            "POSITION": 23,
            "TEXCOORD_0": 25,
            "TEXCOORD_1": 26
          },
          "indices": 27,
          "material": 4,
          "mode": 4
        }
      ]
    },
    {
      "name": "pCube7_blinn9_0",
      "primitives": [
        {
          "attributes": {
            "NORMAL": 29,
            "POSITION": 28,
            "TEXCOORD_0": 30
          },
          "indices": 31,
          "material": 1,
          "mode": 4
        }
      ]
    },
    {
      "name": "Form41_blinn7_0",
      "primitives": [
        {
          "attributes": {
            "NORMAL": 33,
            "POSITION": 32
          },
          "indices": 34,
          "material": 5,
          "mode": 4
        }
      ]
    }
  ],
  "nodes": [
    {
      "children": [
        1
      ],
      "matrix": [
        1.0,
        0.0,
        0.0,
        0.0,
        0.0,
        2.220446049250313e-16,
        -1.0,
        0.0,
        0.0,
        1.0,
        2.220446049250313e-16,
        0.0,
        0.0,
        0.0,
        0.0,
        1.0
      ],
      "name": "Sketchfab_model"
    },
    {
      "children": [
        2
      ],
      "matrix": [
        0.009999999776482582,
        0.0,
        0.0,
        0.0,
        0.0,
        0.0,
        0.009999999776482582,
        0.0,
        0.0,
        -0.009999999776482582,
        0.0,
        0.0,
        0.0,
        0.0,
        0.0,
        1.0
      ],
      "name": "026178adb4544553b604c4b1bd38f627.fbx"
    },
    {
      "children": [
        3,
        8,
        10,
        12,
        14,
        16,
        18,
        20
      ],
      "name": "RootNode"
    },
    {
      "children": [
        4,
        6
      ],
      "name": "Sfennerya"
    },
    {
      "children": [
        5
      ],
      "matrix": [
        -0.043932646959177424,
        5.380197547662745e-18,
        -0.9990344951657877,
        0.0,
        1.1824024047793992e-19,
        1.0,
        5.380197547662745e-18,
        0.0,
        0.9990344951657877,
        1.1824024047793992e-19,
        -0.043932646959177424,
        0.0,
        -18.107995986938477,
        -4.685610771179199,
        -3.6724607944488525,
        1.0
      ],
      "name": "Form42"
    },
    {
      "mesh": 0,
      "name": "Form42_blinn8_0"
    },
    {
      "children": [
        7
      ],
      "matrix": [
        0.25546059012413025,
        0.0,
        0.0,
        0.0,
        0.0,
        0.2406824231147766,
        0.0,
        0.0,
        0.0,
        0.0,
        1.0973637104034424,
        0.0,
        -10.549835205078125,
        2.9116432666778564,
        -3.0688040256500244,
        1.0
      ],
      "name": "pCube8"
    },
    {
      "mesh": 1,
      "name": "pCube8_blinn9_0"
    },
    {
      "children": [
        9
      ],
      "matrix": [
        0.09366397993893052,
        0.042318198138904514,
        -0.03383177905534687,
        0.0,
        -0.17313996505138085,
        0.39019987828775304,
        0.008736683621465607,
        0.0,
        0.08936674266308933,
        0.03318486080402326,
        0.2889226809718999,
        0.0,
        -8.941539764404297,
        4.9529266357421875,
        -3.7084434032440186,
        1.0
      ],
      "name": "pSphere6"
    },
    {
      "mesh": 2,
      "name": "pSphere6_blinn3_0"
    },
    {
      "children": [
        11
      ],
      "matrix": [
        0.1847084015607834,
        0.0,
        0.0,
        0.0,
        0.0,
        0.1847084015607834,
        0.0,
        0.0,
        0.0,
        0.0,
        0.1847084015607834,
        0.0,
        -8.977302551269531,
        4.998083114624023,
        -3.7152066230773926,
        1.0
      ],
      "name": "pSphere7"
    },
    {
      "mesh": 3,
      "name": "pSphere7_blinn4_0"
    },
    {
      "children": [
        13
      ],
      "matrix": [
        0.09627121538584123,
        0.04214045191114341,
        0.025775874507596164,
        0.0,
        -0.1731399650513811,
        0.390199878287753,
        0.008736683621465652,
        0.0,
        -0.06380765196427213,
        -0.03492733172743122,
        0.29541941424014734,
        0.0,
        -8.963231086730957,
        4.933680534362793,
        -2.329606771469116,
        1.0
      ],
      "name": "pSphere8"
    },
    {
      "mesh": 4,
      "name": "pSphere8_blinn3_0"
    },
    {
      "children": [
        15
      ],
      "matrix": [
        0.15662830651340798,
        0.0,
        0.09790182432356163,
        0.0,
        0.0,
        0.1847084015607834,
        0.0,
        0.0,
        -0.09790182432356163,
        0.0,
        0.15662830651340798,
        0.0,
        -8.998992919921875,
        4.978836536407471,
        -2.3363699913024902,
        1.0
      ],
      "name": "pSphere9"
    },
    {
      "mesh": 5,
      "name": "pSphere9_blinn4_0"
    },
    {
      "children": [
        17
      ],
      "matrix": [
        1.81466543674469,
        0.0,
        0.0,
        0.0,
        0.0,
        1.81466543674469,
        0.0,
        0.0,
        0.0,
        0.0,
        1.81466543674469,
        0.0,
        -10.45960807800293,
        4.274629592895508,
        -3.0680408477783203,
        1.0
      ],
      "name": "pSphere5"
    },
    {
      "mesh": 6,
      "name": "pSphere5_blinn11_0"
    },
    {
      "children": [
        19
      ],
      "matrix": [
        0.29088208079338074,
        0.0,
        0.0,
        0.0,
        0.0,
        0.19998781383037567,
        0.0,
        0.0,
        0.0,
        0.0,
        3.596174716949463,
        0.0,
        -10.118900299072266,
        4.070641040802002,
        -3.094141960144043,
        1.0
      ],
      "name": "pCube7"
    },
    {
      "mesh": 7,
      "name": "pCube7_blinn9_0"
    },
    {
      "children": [
        21
      ],
      "matrix": [
        1.1800999641418457,
        0.0,
        0.0,
        0.0,
        0.0,
        0.9118213653564453,
        0.0,
        0.0,
        0.0,
        0.0,
        1.7554116249084473,
        0.0,
        5.642903804779053,
        1.3272240161895752,
        -12.496853828430176,
        1.0
      ],
      "name": "Form41"
    },
    {
      "mesh": 8,
      "name": "Form41_blinn7_0"
    }
  ],
  "scene": 0,
  "scenes": [
    {
      "name": "Sketchfab_Scene",
      "nodes": [
        0
      ]
    }
  ]
}
